<?xml version="1.0" standalone="no"?>
<!DOCTYPE svg PUBLIC "-//W3C//DTD SVG 20010904//EN"
 "http://www.w3.org/TR/2001/REC-SVG-20010904/DTD/svg10.dtd">
<svg version="1.0" xmlns="http://www.w3.org/2000/svg"
 width="421.000000pt" height="421.000000pt" viewBox="0 0 421.000000 421.000000"
 preserveAspectRatio="xMidYMid meet">
<metadata>
Created by potrace 1.14, written by Peter Selinger 2001-2017
</metadata>
<g transform="translate(0.000000,421.000000) scale(0.100000,-0.100000)"
fill="#000000" stroke="none">
<path d="M2130 3694 c-30 -7 -57 -13 -60 -15 -3 -1 -13 -4 -23 -7 -11 -3 -56
-23 -100 -45 -45 -21 -98 -41 -117 -44 -102 -14 -236 -81 -313 -158 -27 -27
-55 -45 -69 -45 -27 0 -108 -35 -109 -47 0 -4 -2 -24 -3 -43 -4 -46 -13 -79
-26 -95 -14 -17 -61 -107 -65 -125 -2 -8 -20 -61 -39 -117 -47 -134 -50 -162
-49 -475 1 -148 0 -268 -2 -268 -2 0 -19 9 -37 20 -31 18 -35 18 -66 3 -76
-37 -87 -154 -31 -348 19 -66 34 -124 34 -130 0 -5 -16 -11 -35 -12 -19 0 -43
-1 -53 -2 -10 -1 -30 -13 -44 -27 l-26 -26 7 -176 c9 -217 12 -278 20 -418 16
-266 17 -316 4 -331 -18 -22 -111 -197 -113 -213 0 -3 -6 -15 -13 -28 -7 -12
-10 -22 -6 -22 3 0 1 -7 -6 -15 -7 -8 -9 -15 -6 -15 4 0 2 -9 -4 -21 -7 -11
-14 -33 -17 -47 -8 -42 -11 -57 -13 -57 -1 0 -4 -12 -6 -26 l-4 -27 157 -5
c201 -7 2213 -7 2393 0 74 3 138 8 142 12 18 17 -66 273 -128 391 l-36 69 6
108 c4 59 9 155 11 213 3 58 7 139 10 180 9 132 19 354 18 394 -2 57 -34 86
-101 88 -29 2 -52 5 -52 8 0 3 7 28 16 55 9 28 17 55 18 60 1 6 8 30 15 55 46
163 31 276 -44 317 -21 12 -59 2 -87 -24 -17 -15 -18 -12 -19 63 0 43 0 113 2
154 8 290 -8 409 -73 549 -16 36 -32 86 -34 111 -2 25 -6 55 -9 67 -4 17 1 26
24 38 17 8 36 15 44 15 24 0 29 31 11 59 -23 35 -131 141 -169 166 -60 39
-114 64 -175 80 -3 0 -14 4 -25 8 -11 3 -33 8 -49 11 -16 3 -52 10 -80 15 -28
6 -68 12 -89 14 -46 6 -52 11 -42 34 5 10 9 21 10 26 2 4 3 8 5 10 1 1 3 10 5
20 8 42 -171 67 -285 41z"/>
</g>
</svg>
